<svg xmlns="http://www.w3.org/2000/svg" xmlns:xlink="http://www.w3.org/1999/xlink" viewBox="0 0 661.74 374.52"><defs><style>.cls-1{fill:#1d6332;}.cls-2,.cls-6{fill:#f78e20;}.cls-3{fill:#5c5d28;}.cls-4,.cls-5,.cls-6{stroke-miterlimit:10;stroke-width:3px;}.cls-4{fill:url(#linear-gradient);stroke:url(#linear-gradient-2);}.cls-5{fill:url(#linear-gradient-3);stroke:url(#linear-gradient-4);}.cls-6{stroke:#cf8129;}</style><linearGradient id="linear-gradient" x1="325.02" y1="173.54" x2="413.61" y2="173.54" gradientUnits="userSpaceOnUse"><stop offset="0" stop-color="#f4c22e"/><stop offset="0" stop-color="#ecc33e"/><stop offset="0.32" stop-color="#fcf38f"/><stop offset="0.68" stop-color="#dcac26"/><stop offset="1" stop-color="#faf399"/></linearGradient><linearGradient id="linear-gradient-2" x1="323.36" y1="173.54" x2="415.11" y2="173.54" xlink:href="#linear-gradient"/><linearGradient id="linear-gradient-3" x1="429.82" y1="200.94" x2="513.89" y2="200.94" xlink:href="#linear-gradient"/><linearGradient id="linear-gradient-4" x1="428.32" y1="200.94" x2="515.39" y2="200.94" xlink:href="#linear-gradient"/></defs><g id="Layer_2" data-name="Layer 2"><g id="Layer_1-2" data-name="Layer 1"><path class="cls-1" d="M283.49,163.79a163.91,163.91,0,0,0,80,169.72,172.94,172.94,0,0,0,22.59,11.06c3.85,1.67,7.86,2.93,11.81,4.35,4,1.16,8,2.49,12.11,3.38a158.53,158.53,0,0,0,49.84,4.07c33.31-2.45,65.56-15.06,90.88-35.7l-.07-.09c-27.62,17.31-59.38,27-91.18,27.32a185.23,185.23,0,0,1-47-5.56c-3.86-.85-7.61-2.12-11.4-3.21-3.71-1.35-7.48-2.52-11.1-4.11a148.52,148.52,0,0,1-21.16-10.55A156.19,156.19,0,0,1,349.43,311a167.7,167.7,0,0,1-17.38-16,164,164,0,0,1-15.24-18.12,157.26,157.26,0,0,1-12.71-20.07A159.88,159.88,0,0,1,294.23,235a164.08,164.08,0,0,1-6.84-23,180.11,180.11,0,0,1-3.55-23.89,201.46,201.46,0,0,1-.35-24.34"/><path class="cls-1" d="M369.78,345.54a187.08,187.08,0,0,0,41.9,14,192.38,192.38,0,0,0,21.87,3.07l5.5.45c1.84.12,3.68.13,5.51.2,3.68.19,7.36.08,11,0a181.53,181.53,0,0,0,84-23.62c2.84-1.59,5.63-3.29,8.37-5.05,18.38-27.92,49.21-95.47.09-187.34,0,0,61.14,82,23.43,169.26q1.71-1.53,3.39-3.09a183.77,183.77,0,0,0,27.92-33.95,189.61,189.61,0,0,0,18.93-39.67,183.61,183.61,0,0,0,8.85-43.12,179.36,179.36,0,0,0-1.68-44,186.89,186.89,0,0,0-34.18-80.95,176.85,176.85,0,0,0-30.57-32.41,186.16,186.16,0,0,0-37.61-24.41A194,194,0,0,0,483.88,0a187.4,187.4,0,0,1,44,12,184,184,0,0,1,39.84,22.83A184.75,184.75,0,0,1,639.05,151a190.34,190.34,0,0,1,2.38,46.59,194,194,0,0,1-8.92,45.85,188.05,188.05,0,0,1-19.93,42.31,192.4,192.4,0,0,1-67.27,64,188.53,188.53,0,0,1-89.42,24.78,185.8,185.8,0,0,1-90.06-21,168.64,168.64,0,0,1-66.56-62.38c19.81,23,43.61,42,70.51,54.44"/><path class="cls-1" d="M597.59,313.91s30.51-30.8,47.4-63c0,0-2.76,44.41-47.4,63"/><path class="cls-2" d="M523,10.63s-.4,2.72-6,1c-3.65-1.12-3.85-4-10.18-7.24a47.29,47.29,0,0,0,8.6,2c4,.54,8,1.25,7.6,4.21"/><path class="cls-2" d="M634.9,185.34s6.38-21.27-32.21-39c0,0,.48,33.62,32.21,39"/><path class="cls-2" d="M628.93,150.54s4-19.8-32.47-32.84c0,0,3.26,30.46,32.47,32.84"/><path class="cls-2" d="M621.82,116.74s.32-18.28-34.27-24.25c0,0,7.88,26.65,34.27,24.25"/><path class="cls-2" d="M607.27,86.35s-2.07-18.18-37.15-19.84c0,0,11.3,25.49,37.15,19.84"/><path class="cls-2" d="M588.38,61.11s-5-17.65-39.87-13.9c0,0,15.28,23.45,39.87,13.9"/><path class="cls-2" d="M569.12,41.5s-4.9-11.93-28.91-6.66c0,0,12.54,15.2,28.91,6.66"/><path class="cls-2" d="M630.91,219.65s9.94-20.25-25.72-44.07c0,0-5.13,33.66,25.72,44.07"/><path class="cls-2" d="M639.43,205s-13.06-19.87,20.79-48.82c0,0,9.88,34.39-20.79,48.82"/><path class="cls-2" d="M632.18,238.88s-9.39-21.74,29.08-44.6c0,0,3.69,35.49-29.08,44.6"/><path class="cls-2" d="M640.47,170s-16.42-16.17,9.43-50.12c0,0,16.43,30.49-9.43,50.12"/><path class="cls-2" d="M632.82,134.22s-14.47-11.37,2.82-40.5c0,0,15.81,22.69-2.82,40.5"/><path class="cls-2" d="M623.51,106.58s-17.65-5.68-12.1-38.92c0,0,23,15.83,12.1,38.92"/><path class="cls-2" d="M603.88,73.21s-13-3.24-10.65-27.41c0,0,17.33,10.29,10.65,27.41"/><path class="cls-2" d="M586.06,50.5s-13.17-1-15.07-25c0,0,18.62,7.2,15.07,25"/><path class="cls-2" d="M568.33,35.38s-8.9.66-12.77-15.13c0,0,13.21,2.89,12.77,15.13"/><path class="cls-2" d="M549.81,28.5s-5.1-9.93-25.36-3.72c0,0,11.91,12.21,25.36,3.72"/><path class="cls-2" d="M554.89,27.52s-7.66.78-11.41-12.76c0,0,11.47,2.18,11.41,12.76"/><path class="cls-2" d="M534.34,19.27s-4.56-8.9-22.71-3.35c0,0,10.65,10.94,22.71,3.35"/><path class="cls-2" d="M542.44,20.59s-7.43,2-13.35-10.84c0,0,11.68.38,13.35,10.84"/><path class="cls-1" d="M319.48,249a143,143,0,0,0,21.19,34.49c84.05,6.23,130.67,45.64,134.8,48.4h0l.2.13-.13-.15c-37-50.06-104.73-72.89-156.08-82.86"/><path class="cls-1" d="M354.59,297.28c25.33,22.27,62.14,37,97.78,35.32.63,0,1.23-.05,1.85-.11l.1-.08c-34.53-23.42-74.19-33.05-99.73-35.13"/><path class="cls-1" d="M437.07,287.8c56.49-15.75,95.54-4.05,110.86,2.4a159.24,159.24,0,0,0,17.23-21.61l0,0a39,39,0,0,1,2.23-5.15c-93.19-21.24-130.34,24.38-130.34,24.38"/><path class="cls-1" d="M453.23,294.55c16.14,11.16,24.52,22.3,34.74,33.45a142.73,142.73,0,0,0,48.56-27.06c-38.8-14.93-72-9.72-83.3-6.39"/><path class="cls-3" d="M500.93,76.31s106.32,54.89,95,177.91c0,0,25.29-118.23-95-177.91"/><path class="cls-2" d="M561.18,126.37s-3.55-10.46-23.1-9c0,0,9.6,14.08,23.1,9"/><path class="cls-2" d="M546.45,113.5s-3.5-9.5-20.78-7.38c0,0,9,12.6,20.78,7.38"/><path class="cls-2" d="M534.51,101.94s-4-9.38-20.88-6.06c0,0,9.56,12.14,20.88,6.06"/><path class="cls-2" d="M578.94,150.61s-10.3-8-1-28.36c0,0,12,15.92,1,28.36"/><path class="cls-2" d="M585.09,168.37s-9.16-9.4,3.33-27.63c0,0,9.62,17.37-3.33,27.63"/><path class="cls-2" d="M569,134.79s-10.66-6.24-4.72-27.51c0,0,13.29,13.74,4.72,27.51"/><path class="cls-2" d="M558.51,117.62s-9.42-2.43-9.62-20.24c0,0,13,7.64,9.62,20.24"/><path class="cls-2" d="M546.52,106.32s-9.34-.27-13.39-18.3c0,0,13.86,4.72,13.39,18.3"/><path class="cls-2" d="M532,95.58s-6.67.47-10.78-12.27c0,0,10.19,2.42,10.78,12.27"/><path class="cls-2" d="M501.23,76.81s-.13,1.35-2.62.44c-1.61-.59-1.75-2-4.56-3.69a18.84,18.84,0,0,0,3.79,1.09c1.74.31,3.53.7,3.39,2.16"/><path class="cls-2" d="M521.88,92.55s-2.33-6-12.74-3.58c0,0,5.73,7.65,12.74,3.58"/><path class="cls-2" d="M521.44,89.51s-3.88.24-5.83-7.62c0,0,5.82,1.56,5.83,7.62"/><path class="cls-2" d="M513.23,85.92s-2.39-5-11.14-2.09c0,0,5.41,6.17,11.14,2.09"/><path class="cls-2" d="M515.44,85.48s-3.33.32-5.19-6.42c0,0,5,1.19,5.19,6.42"/><path class="cls-2" d="M506.33,81.2s-2.14-4.45-10-1.88c0,0,4.83,5.52,10,1.88"/><path class="cls-2" d="M509.88,81.93s-3.21.9-6-5.49a6.62,6.62,0,0,1,6,5.49"/><path class="cls-1" d="M138.37,70.56l-.58,18.7c-13.46-1.1-33.51-1.1-59.58-1.1-2.58,71.09-6,151-6,226.85H52.42c4-75.86,5.45-151.72,7.74-226.85-30.08,0-41.54,1.1-60.16,1.1l.57-18.7Z"/><path class="cls-1" d="M164.44,245.9c1.76-16.62,2.15-40.47,3.52-59.43l-.39-.39C154.08,200.74,107.35,197,107.35,223c0,13.49,12.9,17.4,24.05,17.4a65.13,65.13,0,0,0,22.09-4.11l-2.15,9.39a92.11,92.11,0,0,1-20.53,2.34c-10.16,0-35.19-.39-35.19-24.44,0-41.44,72.34-25.41,72.34-53.37,0-12.9-14.86-15.45-24.83-15.45A83.86,83.86,0,0,0,108.52,162l1.37-10c11-2.94,22.29-4.89,31.48-4.89,26.78,0,38.32,7.43,38.32,24.44,0,16.42-2.93,43-2.93,74.29Z"/><path class="cls-1" d="M269.35,249.23c1.76-16.62,2.15-40.47,3.52-59.44l-.39-.39c-13.49,14.67-60.22,10.95-60.22,36.95,0,13.49,12.91,17.4,24.05,17.4a65,65,0,0,0,22.09-4.1L256.25,249a91.47,91.47,0,0,1-20.53,2.35c-10.16,0-35.19-.39-35.19-24.44,0-41.45,72.34-25.41,72.34-53.37,0-12.91-14.86-15.45-24.83-15.45a83.82,83.82,0,0,0-34.6,7.24l1.37-10c10.94-2.93,22.28-4.88,31.47-4.88,26.79,0,38.32,7.43,38.32,24.44,0,16.42-2.93,43-2.93,74.29Z"/><path class="cls-4" d="M325,232.91c13,6.13,26.39,10.37,41,10.37,16,0,33-7.78,33-25.92,0-30.39-68.56-52.07-68.56-87.41,0-17.2,11.31-37.46,45.24-37.46a154.89,154.89,0,0,1,31.8,3.3l1.42,13.9a90.68,90.68,0,0,0-31.81-5.89c-15.08,0-32,7.54-32,24.74,0,30.16,68.56,50.89,68.56,88.35,0,27.8-24,37.7-48.3,37.7-13.9,0-26.15-3.07-39.35-7.07Z"/><path class="cls-5" d="M498.64,249.23c1.76-16.62,2.16-40.47,3.52-59.44l-.39-.39c-13.49,14.67-60.21,10.95-60.21,36.95,0,13.49,12.9,17.4,24,17.4a65.13,65.13,0,0,0,22.1-4.1L485.55,249A91.61,91.61,0,0,1,465,251.38c-10.17,0-35.2-.39-35.2-24.44,0-41.45,72.34-25.41,72.34-53.37,0-12.91-14.86-15.45-24.83-15.45a83.82,83.82,0,0,0-34.6,7.24l1.37-10c10.95-2.93,22.29-4.88,31.47-4.88,26.79,0,38.32,7.43,38.32,24.44,0,16.42-2.93,43-2.93,74.29Z"/><path class="cls-6" d="M140.05,310.1H135.5c-4.2-7.49-9.23-14.5-13.9-21.69a24,24,0,0,0,4.13.42c5.69,0,11-2.76,11-9.05,0-4.79-3.06-6.77-8.21-6.77h-8.87c-.36,12.34-1.08,24-1.08,37.09h-4.19c1-13.54,1.55-26.6,1.55-40h13.79c6.59,0,10.72,2.82,10.72,9.05,0,7.79-5.75,11.69-13.42,11.69Z"/><path class="cls-6" d="M166.42,270.13c-.78,13.31-1.08,26.67-1.38,40h-4.19c.78-13,1.44-25.77,1.44-40Z"/><path class="cls-6" d="M220.05,274.09a32.52,32.52,0,0,0-9.88-1.68c-11.09,0-18.28,7.31-18.28,18.34,0,10.36,6.35,17.13,16.78,17.13A36.69,36.69,0,0,0,219.51,306L219,309.5a47.67,47.67,0,0,1-10.12,1.26c-12.17,0-20.68-7.07-20.68-19.59,0-13.61,8.51-21.64,22-21.64a46.37,46.37,0,0,1,9.58,1Z"/><path class="cls-6" d="M245.64,288.29h18.58l-.12,2.88H245.52l-.6,16.06h9.23c4.2,0,6,0,11.21-.25l-.18,3.12H240.85c1-13.6,1.44-24,1.56-40h24.32l-.18,3.06c-2.81-.18-4-.18-6-.18H246.24Z"/></g></g></svg>